<svg xmlns="http://www.w3.org/2000/svg" xmlns:xlink="http://www.w3.org/1999/xlink" viewBox="0 0 100 125" version="1.1" x="0px" y="0px"><title>Desktop Copy 2</title><desc>Created with Sketch.</desc><g stroke="none" stroke-width="1" fill="none" fill-rule="evenodd"><path d="M47,17.1460539 L38.5179051,25.9310808 C37.1752563,27.3216814 34.9595198,27.360554 33.5689192,26.0179051 C32.1783186,24.6752563 32.139446,22.4595198 33.4820949,21.0689192 L47.4820949,6.5689192 C48.8581748,5.1436936 51.1418252,5.1436936 52.5179051,6.5689192 L66.5179051,21.0689192 C67.860554,22.4595198 67.8216814,24.6752563 66.4310808,26.0179051 C65.0404802,27.360554 62.8247437,27.3216814 61.4820949,25.9310808 L54,18.1817682 L54,38.3318171 C54,40.3576986 52.4329966,42 50.5,42 C48.5670034,42 47,40.3576986 47,38.3318171 L47,17.1460539 Z M95,71 C95,72.9329966 93.4329966,74.5 91.5,74.5 L83.5,74.5 C81.5670034,74.5 80,72.9329966 80,71 C80,69.0670034 81.5670034,67.5 83.5,67.5 L91.5,67.5 C93.4329966,67.5 95,69.0670034 95,71 Z M95,84.5 C95,86.4329966 93.4329966,88 91.5,88 L8.5,88 C6.56700338,88 5,86.4329966 5,84.5 C5,82.5670034 6.56700338,81 8.5,81 L91.5,81 C93.4329966,81 95,82.5670034 95,84.5 Z M20,71 C20,72.9329966 18.4329966,74.5 16.5,74.5 L8.5,74.5 C6.56700338,74.5 5,72.9329966 5,71 C5,69.0670034 6.56700338,67.5 8.5,67.5 L16.5,67.5 C18.4329966,67.5 20,69.0670034 20,71 Z M18.1801948,39.1801948 C19.5470299,37.8133598 21.7631073,37.8133598 23.1299423,39.1801948 L28.7867966,44.8370491 C30.1536316,46.2038841 30.1536316,48.4199615 28.7867966,49.7867966 C27.4199615,51.1536316 25.2038841,51.1536316 23.8370491,49.7867966 L18.1801948,44.1299423 C16.8133598,42.7631073 16.8133598,40.5470299 18.1801948,39.1801948 Z M81.8198052,39.1801948 C83.1866402,40.5470299 83.1866402,42.7631073 81.8198052,44.1299423 L76.1629509,49.7867966 C74.7961159,51.1536316 72.5800385,51.1536316 71.2132034,49.7867966 C69.8463684,48.4199615 69.8463684,46.2038841 71.2132034,44.8370491 L76.8700577,39.1801948 C78.2368927,37.8133598 80.4529701,37.8133598 81.8198052,39.1801948 Z M32.619233,71.2008383 C32.508313,73.1306499 30.8539732,74.6051529 28.9241617,74.494233 C26.9943501,74.383313 25.5198471,72.7289732 25.630767,70.7991617 C26.3906917,57.577813 37.7247531,47.4758329 50.9461017,48.2357575 C63.0915684,48.9338435 72.7896434,58.6163337 73.507262,70.760662 L73.5092049,70.7935422 C73.6232284,72.7231729 72.151388,74.3798819 70.2217573,74.4939054 C68.2921266,74.6079289 66.6354175,73.1360885 66.521394,71.2064578 L66.5194511,71.1735776 C66.0113223,62.5744649 59.1443439,55.7185217 50.5444251,55.2242234 C41.1826995,54.6861387 33.1573177,61.8391128 32.619233,71.2008383 Z" fill="#000000"/></g><text x="0" y="115" fill="#000000" font-size="5px" font-weight="bold" font-family="'Helvetica Neue', Helvetica, Arial-Unicode, Arial, Sans-serif">Created by Mohammad Iqbal</text><text x="0" y="120" fill="#000000" font-size="5px" font-weight="bold" font-family="'Helvetica Neue', Helvetica, Arial-Unicode, Arial, Sans-serif">from the Noun Project</text></svg>